PathFileType	4	(X/Y/Z)	pose_F01_0-89.trc
DataRate	CameraRate	NumFrames	NumMarkers	Units	OrigDataRate	OrigDataStartFrame	OrigNumFrames
30	30	13	21	m	30	14	89
Frame#	Time	CHip			RHip			RKnee			RAnkle			RBigToe			RSmallToe			RHeel			LHip			LKnee			LAnkle			LBigToe			LSmallToe			LHeel			Neck			Nose			RShoulder			RElbow			RWrist			LShoulder			LElbow			LWrist			
		X1	Y1	Z1	X2	Y2	Z2	X3	Y3	Z3	X4	Y4	Z4	X5	Y5	Z5	X6	Y6	Z6	X7	Y7	Z7	X8	Y8	Z8	X9	Y9	Z9	X10	Y10	Z10	X11	Y11	Z11	X12	Y12	Z12	X13	Y13	Z13	X14	Y14	Z14	X15	Y15	Z15	X16	Y16	Z16	X17	Y17	Z17	X18	Y18	Z18	X19	Y19	Z19	X20	Y20	Z20	X21	Y21	Z21	
14	0.4666666666666667	-0.25375031421095684	1.8827568925129434	-0.5954079126960704	-0.2671924208309767	1.8818138043661277	-0.5299648294079027	-0.2856139153089606	1.7109868074303856	-0.40207966612319435													-0.2340516250015328	1.8867683357646325	-0.6621908406862186	-0.2472679511587189	1.72515970689519	-0.600410409990498	-0.21728595850439283	1.6087675146493727	-0.692668347894545										-0.25786886250388225	2.0561543473195587	-0.6188483499612963	-0.24232403069482789	2.1235148132903334	-0.5941973205240125	-0.28244435492524445	2.050326452655872	-0.5224626338287977	-1.6362353341769758	1.8708185915585185	0.9498369179554929	-0.2921628483151067	1.8813829521595835	-0.45422236764607615	-0.23165015741750977	2.06087662250587	-0.7101664746595986	-0.2266970293768321	1.969074420705517	-0.7334604826963603	-0.21706276192514082	1.8799547238470855	-0.7354376019388768
15	0.5	-0.25375483885709393	1.8809147556514885	-0.5951583943981218	-0.26901835107747535	1.878829649942421	-0.5273328203176143	-0.2856139153089606	1.7109868074303856	-0.40207966612319435													-0.2370051826849773	1.8844650925369504	-0.6628825787838122	-0.2472679511587189	1.72515970689519	-0.600410409990498	-0.21728595850439283	1.6087675146493727	-0.692668347894545										-0.257859744530242	2.0561754373018015	-0.6188623215374256	-0.2423479037260137	2.1235278828781103	-0.5941584635376703	-0.2804612980720822	2.05140209704876	-0.5244098237383982	-1.642636138350785	1.8724441381186114	0.9622562806056935	-0.29130926928024753	1.8833415335924184	-0.45043861269894947	-0.23164097400782271	2.060838038308052	-0.7101976407005356	-0.22653648279950156	1.9693795879856806	-0.7331778941223841	-0.21706276192514082	1.8799547238470855	-0.7354376019388768
16	0.5333333333333333	-0.2536673755458882	1.8810790463850375	-0.5951957075573726	-0.2689311038850282	1.8787607140144487	-0.5274673273045929	-0.2856139153089606	1.7109868074303856	-0.40207966612319435													-0.2339129643103742	1.8873950604783118	-0.6622918696828266	-0.2472679511587189	1.72515970689519	-0.600410409990498	-0.21728595850439283	1.6087675146493727	-0.692668347894545										-0.25785048349278333	2.0561453654809494	-0.6189128700065217	-0.24233761775520385	2.1235339006247798	-0.594178261207095	-0.28042737059539874	2.051428541787518	-0.5244218725081836	-0.2864246670224958	1.9609047954471543	-0.4964490184124305	-0.2929739361063549	1.8773213734109522	-0.44887383378087037	-0.23166752538056845	2.0607655585828573	-0.7102682887769682	-0.2279864383592517	1.9710545094927006	-0.7285425406949351	-0.21706276192514082	1.8799547238470855	-0.7354376019388768
17	0.5666666666666667	-0.2538032540448792	1.8826587611843077	-0.5953952345836642	-0.26912097581268996	1.8805224303398582	-0.5277106603850994	-0.2856139153089606	1.7109868074303856	-0.40207966612319435													-0.2338985145715667	1.8874698697515655	-0.6622754114268391	-0.2472679511587189	1.72515970689519	-0.600410409990498	-0.21728595850439283	1.6087675146493727	-0.692668347894545										-0.2578461265389252	2.056204222558768	-0.6189051399901462	-0.2423422410294745	2.123557481153778	-0.5941971397585076	-0.28045531643358534	2.0514946990445124	-0.5244477002227022	-1.6351184884405903	1.8711715224594987	0.9485040880495044	-0.29120259480859384	1.8859961351982073	-0.4511729478595481	-0.23151934846840883	2.062080497762878	-0.7100971873023375	-0.22636210588674258	1.9704598199328438	-0.7332096546815401	-0.21706276192514082	1.8799547238470855	-0.7354376019388768
18	0.6	-0.2539560942226079	1.8838822761861849	-0.5956260253834469	-0.26922870232568885	1.8816100748671416	-0.5279214121424262	-0.2856139153089606	1.7109868074303856	-0.40207966612319435													-0.23511869282295134	1.8876279892187777	-0.6654129121885383	-0.2472679511587189	1.72515970689519	-0.600410409990498	-0.21728595850439283	1.6087675146493727	-0.692668347894545										-0.2578390865548712	2.056157892726926	-0.6189645069857561	-0.24235501929220257	2.1235108308382054	-0.5941966000430229	-0.280470299688838	2.052689033595435	-0.5249740722605336	-1.63703924673865	1.873009241282962	0.9511943226673638	-0.29274211981801623	1.8884803651882733	-0.45190220846038465	-0.23162161949298876	2.0608570690070436	-0.7102868748897196	-0.2265176743279324	1.9710485595644458	-0.7335361334057686	-0.21706276192514082	1.8799547238470855	-0.7354376019388768
19	0.6333333333333333	-0.2537120096245908	1.885506849832352	-0.5958148643031357	-0.2670505889529037	1.8832509010177398	-0.5302322703125539	-0.2856139153089606	1.7109868074303856	-0.40207966612319435													-0.2348790256189739	1.889313808179087	-0.6655598709231317	-0.2472679511587189	1.72515970689519	-0.600410409990498	-0.21728595850439283	1.6087675146493727	-0.692668347894545										-0.25583353283231225	2.056300683309199	-0.6210311026926626	-0.24234236757986977	2.123516307978615	-0.5942006122995458	-0.28040130347686765	2.05142982491187	-0.5245181701621101	-1.636057335499824	1.872761968391477	0.9504340460608306	-0.2942816448274387	1.8909645951783394	-0.4526314690612212	-0.23163265859093152	2.0609631410154856	-0.7102850227570506	-0.22748488111764759	1.972725946506294	-0.7366048900458639	-0.21706276192514082	1.8799547238470855	-0.7354376019388768
20	0.6666666666666666	-0.2535797871817681	1.8868572077119712	-0.5960048796372753	-0.26797091935617884	1.8854401346433338	-0.5337429773435878	-0.2856139153089606	1.7109868074303856	-0.40207966612319435													-0.23475105363614432	1.890529520079461	-0.6657427638603671	-0.2472679511587189	1.72515970689519	-0.600410409990498	-0.21728595850439283	1.6087675146493727	-0.692668347894545										-0.2558405709307955	2.0563032431234785	-0.621067054846816	-0.24036968477661752	2.124825687824637	-0.5968328245756307	-0.2813787153439291	2.0516579557929955	-0.5274619861943673	-1.6282802020980325	1.8718154674396554	0.9360855369451765	-0.2911110922351464	1.8851034397625122	-0.45194974573704527	-0.23242711079675193	2.061097534657868	-0.7131858431885286	-0.2273476251271106	1.9698747847187035	-0.7362701161179043	-0.21706276192514082	1.8799547238470855	-0.7354376019388768
21	0.7	-0.2537373844581579	1.8847421015770083	-0.5958599477318913	-0.268018264551676	1.8828082459722442	-0.533341433387698	-0.2856139153089606	1.7109868074303856	-0.40207966612319435													-0.23473893456007397	1.8898061037063847	-0.665745846259952	-0.2472679511587189	1.72515970689519	-0.600410409990498	-0.21728595850439283	1.6087675146493727	-0.692668347894545										-0.2578673000509834	2.0562796863648787	-0.6190571376834121	-0.24231533689536214	2.1234956514645216	-0.5942778916451006	-0.2814539998606036	2.0529711012705434	-0.5280285633705146	-1.637859420380379	1.873724096989194	0.9533740778127524	-0.2912719169058138	1.8927114006359234	-0.45165077103892826	-0.2324904905908155	2.0610868633573456	-0.7131857967790532	-0.2273322270062279	1.9742500849857385	-0.7366887120495746	-0.21706276192514082	1.8799547238470855	-0.7354376019388768
22	0.7333333333333333	-0.25251346430426924	1.8843729544745704	-0.600916475027655	-0.26801490265361555	1.8831455299449031	-0.5335256516727901	-0.2856139153089606	1.7109868074303856	-0.40207966612319435													-0.23367052257939724	1.8893668299354882	-0.6708798868922317	-0.2472679511587189	1.72515970689519	-0.600410409990498	-0.21728595850439283	1.6087675146493727	-0.692668347894545										-0.2558276612370255	2.0563746317908285	-0.6211080728805901	-0.24037851341012717	2.123561691465106	-0.5963338185938941	-0.28142134270236474	2.0528407307550522	-0.5280455675330893	-1.6281943177558507	1.871930036795594	0.9358633965328788	-0.2923142682895186	1.885119658689536	-0.4553623525202269	-0.2324488331858314	2.061190163184014	-0.7131709495487448	-0.22753778682454198	1.9725601020472336	-0.7366634978094907	-0.21706276192514082	1.8799547238470855	-0.7354376019388768
23	0.7666666666666667	-0.25268309592151933	1.8828424576078164	-0.6008659899227592	-0.2669005589619581	1.8819195778093825	-0.5386297530664561	-0.2856139153089606	1.7109868074303856	-0.40207966612319435													-0.2356269737949076	1.8873615905465717	-0.6686226327422302	-0.2472679511587189	1.72515970689519	-0.600410409990498	-0.21728595850439283	1.6087675146493727	-0.692668347894545										-0.25672024723743325	2.056650614315631	-0.6240798584880594	-0.24033814616036087	2.124882665082437	-0.5968673557045235	-0.2814342869542046	2.052984629365729	-0.5281099894269692	-1.630226699143205	1.873633835904985	0.9387788840544795	-0.29154780916100476	1.885514730692297	-0.46098877266304555	-0.23246748215326662	2.061167378340185	-0.7132660280382813	-0.22719570049102983	1.9721396722390796	-0.7364874136682661	-0.21706276192514082	1.8799547238470855	-0.7354376019388768
24	0.8	-0.25253056807711294	1.8844658389504032	-0.6009120370059041	-0.2678768323475714	1.882061993692891	-0.5333779821681227	-0.2856139153089606	1.7109868074303856	-0.40207966612319435													-0.23565312891959783	1.8878847774100782	-0.6685971773730902	-0.2472679511587189	1.72515970689519	-0.600410409990498	-0.21728595850439283	1.6087675146493727	-0.692668347894545										-0.25577378868210865	2.0564478866157776	-0.6211560115383684	-0.24033551583717072	2.1248527874277774	-0.5968381104378155	-0.2794176911031393	2.0516087061620683	-0.5296361666515091	-1.6263686369447121	1.8707860878689888	0.9329906227883211	-0.29020562472695843	1.882825832226045	-0.456664344798854	-0.2324409162016178	2.061234088453965	-0.713184862596936	-0.2274565539436481	1.9710041158952059	-0.7364248169908477	-0.21706276192514082	1.8799547238470855	-0.7354376019388768
25	0.8333333333333334	-0.25178309863119014	1.8827723526081022	-0.5976782933032126	-0.26816636578544545	1.87928532917516	-0.532960861231967	-0.2856139153089606	1.7109868074303856	-0.40207966612319435													-0.23494794292902582	1.886762346807272	-0.6653661137036565	-0.2472679511587189	1.72515970689519	-0.600410409990498	-0.21728595850439283	1.6087675146493727	-0.692668347894545										-0.25589554450069024	2.0553383605437667	-0.6212992454002554	-0.24032278184678618	2.1236354839417597	-0.596320874137913	-0.281392526194671	2.052822447405508	-0.5280615281495042	-1.6294615558678898	1.8722385858882493	0.9370873756865118	-0.2903003882728979	1.8876547437793536	-0.456950036630037	-0.23243731324813485	2.06121220693754	-0.7132888560009456	-0.22759552012875997	1.9694958091491965	-0.7363877744501303	-0.21706276192514082	1.8799547238470855	-0.7354376019388768
26	0.8666666666666667	-0.2512637346219908	1.8794088752052165	-0.5972538000110629	-0.26635126475736814	1.878417485921819	-0.5295875976602599	-0.2856139153089606	1.7109868074303856	-0.40207966612319435													-0.23530411781973398	1.8834060382059035	-0.6680722721748977	-0.2472679511587189	1.72515970689519	-0.600410409990498	-0.21728595850439283	1.6087675146493727	-0.692668347894545										-0.2557608387771331	2.0566223066872564	-0.6212253287369652	-0.24033996944741617	2.1235902893379537	-0.5963376157674519	-0.2813361604046536	2.0516956710730714	-0.5275587801597746	-1.6339061938436648	1.871963789144014	0.9468480015597551	-0.28695602030590456	1.8885415119049638	-0.4553216967173297	-0.23032236010639986	2.061366464692128	-0.7154235669311274	-0.22507012266075221	1.9677184894989066	-0.7382854304725518	-0.21706276192514082	1.8799547238470855	-0.7354376019388768
